<svg width="63" height="73" viewBox="0 0 63 73" fill="none" xmlns="http://www.w3.org/2000/svg">
<path d="M0.806818 72.1932L12.7045 0.636362H25.0455L19.9659 30.9773C19.6023 33.3409 19.7955 35.4205 20.5455 37.2159C21.3182 38.9886 22.5682 40.3864 24.2955 41.4091C26.0227 42.4091 28.1364 42.9091 30.6364 42.9091C33.1591 42.9091 35.4432 42.4091 37.4886 41.4091C39.5568 40.3864 41.2614 38.9886 42.6023 37.2159C43.9432 35.4205 44.7955 33.3409 45.1591 30.9773L50.2386 0.636362H62.6136L53.8864 53H41.8864L43.2159 45.4318H42.8068C41.1932 47.8409 39.1591 49.7159 36.7045 51.0568C34.25 52.375 31.6477 53.0341 28.8977 53.0341C26.2386 53.0341 23.8864 52.375 21.8409 51.0568C19.8182 49.7159 18.4205 47.8409 17.6477 45.4318H17.2386L12.7727 72.1932H0.806818Z" fill="white"/>
</svg>
